<svg version="1.1" id="Frame_0" xmlns="http://www.w3.org/2000/svg" xmlns:xlink="http://www.w3.org/1999/xlink" width="20px" height="20px">
	<path fill="#ffffff" fill-rule="evenodd" stroke="#000000" stroke-width="1.5" stroke-linecap="round" stroke-linejoin="round" d="M 2.516 15.057 C 2.516 15.055 2.516 1.328 2.516 1.327 C 2.517 1.327 10.039 1.354 13.201 1.327 C 13.853 1.321 15.452 1.551 16.095 2.188 C 16.712 2.800 16.961 4.350 16.959 4.954 C 16.945 8.114 16.959 15.056 16.959 15.057 C 16.957 15.057 2.518 15.057 2.516 15.057 M 0.508 15.057 C 0.508 15.057 0.508 19.314 0.508 19.315 C 0.510 19.315 19.390 19.315 19.392 19.315 C 19.392 19.314 19.392 15.057 19.392 15.057 C 19.390 15.057 0.510 15.057 0.508 15.057 Z"/>
	<path fill="#000000" fill-rule="evenodd" stroke="none" d="M 6.553 4.280 C 6.553 4.280 6.553 2.619 6.553 2.619 C 6.553 2.619 8.213 2.619 8.213 2.619 C 8.213 2.619 8.213 4.280 8.213 4.280 C 8.213 4.280 6.553 4.280 6.553 4.280 M 3.538 7.221 C 3.538 7.221 3.538 5.560 3.538 5.560 C 3.539 5.560 5.199 5.560 5.199 5.560 C 5.199 5.560 5.199 7.221 5.199 7.221 C 5.199 7.221 3.539 7.221 3.538 7.221 M 3.579 4.357 C 3.579 4.357 3.579 2.697 3.579 2.697 C 3.579 2.697 5.239 2.697 5.240 2.697 C 5.240 2.697 5.240 4.357 5.240 4.357 C 5.239 4.357 3.579 4.357 3.579 4.357 Z"/>
</svg>